<svg width="128" height="128" viewBox="0 0 128 128" fill="none" xmlns="http://www.w3.org/2000/svg">
<rect width="128" height="128" rx="16" fill="#FEFEFE"/>
<path d="M34.0676 100V30H68.2676C77.0676 30 83.6676 31.6667 88.0676 35C92.5342 38.3333 94.7676 42.7333 94.7676 48.2C94.7676 51.8667 93.8676 55.0667 92.0676 57.8C90.2676 60.4667 87.8009 62.5333 84.6676 64C81.5343 65.4667 77.9342 66.2 73.8676 66.2L75.7676 62.1C80.1676 62.1 84.0676 62.8333 87.4676 64.3C90.8676 65.7 93.5009 67.8 95.3676 70.6C97.3009 73.4 98.2676 76.8333 98.2676 80.9C98.2676 86.9 95.9009 91.6 91.1676 95C86.4342 98.3333 79.4676 100 70.2676 100H34.0676ZM50.1676 87.8H69.0676C73.2676 87.8 76.4342 87.1333 78.5676 85.8C80.7676 84.4 81.8676 82.2 81.8676 79.2C81.8676 76.2667 80.7676 74.1 78.5676 72.7C76.4342 71.2333 73.2676 70.5 69.0676 70.5H48.9676V58.7H66.2676C70.2009 58.7 73.2009 58.0333 75.2676 56.7C77.4009 55.3 78.4676 53.2 78.4676 50.4C78.4676 47.6667 77.4009 45.6333 75.2676 44.3C73.2009 42.9 70.2009 42.2 66.2676 42.2H50.1676V87.8Z" fill="#30736D"/>
</svg>
